<svg width="33" height="43" viewBox="0 0 33 43" fill="none" xmlns="http://www.w3.org/2000/svg">
<path fill-rule="evenodd" clip-rule="evenodd" d="M31.1239 39.5653L27.0829 38.8409L25.0781 42.4311C23.6227 44.2332 22.699 41.2694 22.2932 40.2371L18.3921 32.8783C19.2913 32.5668 20.3759 31.6675 21.4885 30.6562C23.7101 30.7017 25.7814 30.3168 27.3033 28.3783L31.7851 37.0388L32.1735 37.8716C32.4814 38.9529 32.3204 39.6667 31.1239 39.5653ZM16.1564 0.00308766C16.9157 -0.0284053 17.5139 0.234036 18.1192 0.61895C18.8854 1.10534 19.7496 2.06763 20.8167 2.67649C22.3177 3.5338 25.0956 2.35106 26.5161 4.46459C27.3453 5.69632 27.3838 6.6621 27.4467 7.61739C27.5132 8.64616 27.6951 9.59445 28.7483 10.9871C30.4941 13.2966 30.858 14.8328 29.9588 16.4319C29.3465 17.5237 28.0555 18.129 27.7581 18.8219C27.1214 20.2916 27.8246 21.4008 26.9569 23.1154C26.3517 24.3052 25.421 25.089 24.179 25.4879C23.1328 25.8238 22.0832 25.3374 21.2436 25.6909C19.7706 26.3102 18.686 27.7484 17.5139 28.1123C17.0626 28.2523 16.6113 28.3223 16.1599 28.3188C15.7086 28.3223 15.2573 28.2523 14.806 28.1123C13.6339 27.7484 12.5493 26.3102 11.0763 25.6909C10.2367 25.3374 9.18704 25.8273 8.14093 25.4879C6.8989 25.089 5.96824 24.3052 5.36297 23.1154C4.49179 21.4008 5.19503 20.2916 4.56177 18.8219C4.26438 18.129 2.97336 17.5237 2.36109 16.4319C1.45492 14.8328 1.81879 13.2966 3.56464 10.9906C4.61774 9.59795 4.79968 8.64966 4.86615 7.62089C4.92913 6.6656 4.96761 5.69982 5.79681 4.46809C7.22078 2.35456 9.99874 3.5373 11.4962 2.67999C12.5633 2.07113 13.4275 1.10884 14.1937 0.622449C14.7955 0.234036 15.3972 -0.0319045 16.1564 0.00308766ZM13.6899 12.5233L15.5162 14.2624L18.658 11.0676C18.9694 10.7527 19.1653 10.5007 19.5467 10.8927L20.7922 12.1664C21.2016 12.5723 21.1806 12.8067 20.7957 13.1846L16.2264 17.6776C15.4147 18.4755 15.5547 18.5245 14.729 17.7056L11.5906 14.5843C11.4192 14.3989 11.4367 14.2099 11.6256 14.0245L13.0706 12.5268C13.291 12.2958 13.466 12.3098 13.6899 12.5233ZM16.1564 5.68232C20.8377 5.68232 24.6338 9.47897 24.6338 14.1609C24.6338 18.8429 20.8377 22.6395 16.1564 22.6395C11.4752 22.6395 7.6791 18.8429 7.6791 14.1609C7.6791 9.47547 11.4752 5.68232 16.1564 5.68232ZM1.18552 39.5653L5.23002 38.8409L7.23477 42.4311C8.69023 44.2332 9.61388 41.2694 10.0197 40.2371L13.9208 32.8783C13.0216 32.5668 11.937 31.6675 10.8244 30.6562C8.60276 30.7017 6.53153 30.3168 5.0096 28.3783L0.52427 37.0388L0.135915 37.8716C-0.171971 38.9529 -0.0110305 39.6667 1.18552 39.5653Z" fill="#4D32A5"/>
</svg>
