<svg width="36" height="35" viewBox="0 0 36 35" fill="none" xmlns="http://www.w3.org/2000/svg">
<path d="M16.7851 29.7796C9.57649 29.7796 3.71255 23.9145 3.71255 16.7072C3.71255 9.49733 9.57649 3.63347 16.7851 3.63347C23.9938 3.63347 29.8589 9.49742 29.8589 16.7072C29.8589 19.4318 29.0196 21.9637 27.5875 24.0603L30.1912 26.5686C32.2162 23.8046 33.4131 20.3957 33.4131 16.7066C33.4131 7.47981 25.9333 0 16.7066 0C7.47981 0 0 7.47972 0 16.7066C0 25.9333 7.47972 33.413 16.7066 33.413C21.0492 33.413 25.0044 31.756 27.9753 29.04L25.1712 26.7262C22.8995 28.6306 19.9743 29.7796 16.7851 29.7796Z" fill="#4D32A5"/>
<path d="M24.9297 21.5001C25.7571 20.0942 26.2322 18.4563 26.2322 16.7073C26.2322 11.479 21.9944 7.24121 16.7674 7.24121C11.5392 7.24121 7.30127 11.479 7.30127 16.7073C7.30127 21.9342 11.5392 26.1721 16.7674 26.1721C18.8414 26.1721 20.7596 25.5046 22.3192 24.3731L18.9517 21.5946C18.3029 21.8763 17.5878 22.0334 16.8355 22.0334C13.8937 22.0334 11.5089 19.6488 11.5089 16.7066C11.5089 13.7649 13.8938 11.38 16.8355 11.38C19.7769 11.38 22.1621 13.7649 22.1621 16.7066C22.1621 17.3455 22.0471 17.9568 21.8406 18.5242L24.9297 21.5001Z" fill="#4D32A5"/>
<path d="M35.9698 30.7242L33.0064 27.8511C33.0403 27.8012 32.7943 27.7133 32.5521 27.705L30.1677 28.06L30.017 27.9158L20.4894 18.7368L20.5113 18.7122C20.5724 18.6438 20.5663 18.5389 20.498 18.4778L20.4955 18.4756C20.4271 18.4145 20.3221 18.4205 20.2611 18.489L20.2367 18.5163C19.8837 18.2787 19.4251 18.2798 19.0753 18.5075L16.8098 16.7597C16.7905 16.7448 16.7515 16.7597 16.7215 16.7932L16.7204 16.7945C16.6904 16.8281 16.6802 16.8685 16.6972 16.886L18.6959 18.942C18.5221 19.3113 18.577 19.756 18.8479 20.0734L18.8236 20.1008C18.7625 20.1692 18.7686 20.2742 18.8369 20.3352L18.8394 20.3374C18.9078 20.3984 19.0127 20.3923 19.0738 20.324L19.0958 20.2994L29.3007 28.7196L29.6826 29.0348L29.4522 28.8448L29.3724 31.2137C29.3659 31.4069 29.4498 31.5921 29.5994 31.7148L32.7649 34.3098C32.8275 34.3611 32.9215 34.3161 32.9208 34.2352L32.8971 31.6878L34.1153 32.6932C34.1758 32.7434 34.2517 32.7648 34.3255 32.7591C34.3711 32.7556 34.4151 32.7406 34.4552 32.7164C34.464 32.7112 34.4729 32.7068 34.481 32.7006C34.4838 32.6985 34.4861 32.6956 34.4888 32.6935C34.5009 32.6838 34.5128 32.6736 34.5234 32.6617L34.5239 32.6611L34.5241 32.6609L34.5279 32.6567L34.5279 32.6566L34.5286 32.6559C34.5508 32.631 34.5669 32.6027 34.5792 32.5732C34.5813 32.568 34.5845 32.5631 34.5863 32.5578C34.5865 32.5572 34.5865 32.5565 34.5867 32.556C34.5987 32.5211 34.6041 32.4846 34.6027 32.4483C34.6002 32.3744 34.5702 32.3013 34.5134 32.2467L33.7474 31.5096L33.3833 31.1589L35.9115 30.8927C35.9946 30.8839 36.0296 30.7823 35.9698 30.7242Z" fill="#4D32A5"/>
</svg>
