<svg width="34" height="35" viewBox="0 0 34 35" fill="none" xmlns="http://www.w3.org/2000/svg">
<path d="M0 13.9051V19.2748C0.00464408 20.404 0.716581 21.3746 1.73247 21.7828C2.87979 27.9372 8.39022 31.8965 15.2565 32.4361C15.5695 33.3612 16.4765 34.0372 17.5604 34.0372C18.9028 34.0372 19.9914 33.0076 19.9914 31.7379C19.9914 30.4682 18.9028 29.4339 17.5604 29.4339C16.5308 29.4339 15.6557 30.0416 15.3018 30.8989C9.36966 30.4046 4.57604 27.1437 3.39668 21.9372C4.13137 21.7921 4.76622 21.3704 5.17002 20.7899C6.1678 23.8148 8.33566 26.3319 11.1565 27.8422C11.1973 27.8603 11.2336 27.8875 11.2744 27.9056C11.2925 27.9102 11.3062 27.9146 11.3288 27.9146C11.3469 27.9146 11.365 27.91 11.3831 27.9056C11.4059 27.8965 11.4284 27.8828 11.4511 27.8738C11.5101 27.8329 11.5554 27.7695 11.5554 27.6924C11.5555 27.6645 11.5499 27.6368 11.5391 27.611C11.5282 27.5853 11.5122 27.562 11.492 27.5426C11.4874 27.538 11.483 27.5336 11.4783 27.5336C8.68907 25.0574 8.51678 22.6355 8.82514 19.1025C9.09264 16.0095 10.9568 13.0796 11.9 11.7553L11.968 11.7962C11.9961 11.7603 12.0319 11.731 12.0727 11.7106C12.1135 11.6902 12.1583 11.6792 12.2039 11.6782C12.3537 11.6782 12.467 11.7825 12.4942 11.9186C12.594 12.8346 12.8072 13.4697 12.9567 13.7825C13.5916 15.1248 14.6258 15.9322 16.1449 16.1997C18.5303 16.6214 20.9023 17.1113 23.288 17.5421C24.7755 17.8096 26.05 19.4334 25.8004 21.0841C25.2336 24.8393 22.6167 27.5287 21.891 28.0502C21.9319 28.0231 21.9728 28.005 22.0225 28.005C22.0677 28.005 22.1267 28.0549 22.1766 28.1183C22.2493 28.2091 22.3081 28.3177 22.3127 28.3361C25.4421 27.0118 27.9183 24.4947 29.1337 21.379C29.6371 21.9823 30.3946 22.3722 31.2516 22.3722C32.7709 22.3722 34 21.1659 34 19.6781V14.372C34 13.0478 33.0203 11.9501 31.7323 11.7235C30.4034 5.04765 24.4351 0 17.2467 0C10.2488 0 4.41652 4.78456 2.88815 11.1929C2.8654 11.1929 2.84728 11.1883 2.82012 11.1883C1.26087 11.1883 0 12.4039 0 13.9051ZM5.07946 12.304C6.14063 6.64405 11.1795 2.35362 17.2474 2.35362C23.3428 2.35362 28.3995 6.68469 29.4244 12.3855C29.3202 12.4763 29.2159 12.5715 29.1251 12.6758C27.3155 7.99989 22.6896 4.6666 17.2518 4.6666C11.7913 4.6666 7.14724 8.02729 5.35602 12.7348C5.27916 12.5808 5.18395 12.4401 5.07946 12.304Z" fill="#4D32A5"/>
<path d="M16.3091 26.8214C14.6265 26.6263 13.1934 25.4834 12.6672 23.9098C12.6489 23.8525 12.6527 23.7905 12.6779 23.7359C12.7031 23.6813 12.7478 23.6381 12.8033 23.6149C12.8594 23.5913 12.9221 23.5884 12.9802 23.6067C13.0383 23.625 13.0881 23.6633 13.1207 23.7147C13.1297 23.7284 13.7964 24.7759 16.4043 25.1161C16.7944 25.166 17.1752 25.1932 17.5335 25.1932C19.3612 25.1932 20.1729 24.5219 20.182 24.5175C20.2728 24.4357 20.4133 24.4357 20.5085 24.5128C20.6037 24.5899 20.6264 24.726 20.5538 24.8258C19.7601 26.0776 18.3316 26.853 16.8304 26.853C16.6583 26.853 16.4858 26.8395 16.3091 26.8214Z" fill="#4D32A5"/>
</svg>
