<svg width="34" height="34" viewBox="0 0 34 34" fill="none" xmlns="http://www.w3.org/2000/svg">
<g clip-path="url(#clip0_36_37)">
<path fill-rule="evenodd" clip-rule="evenodd" d="M15.2596 0C16.8891 1.05544 18.5894 1.99508 20.348 2.81214C19.8609 3.42918 19.4536 4.10646 19.1361 4.82759C17.805 4.1693 16.5117 3.43575 15.2624 2.63044C11.4745 5.6047 7.11654 7.08345 2.36019 6.82348C2.00049 20.6661 7.11654 28.3478 15.3122 31.3612C21.1753 29.1249 25.4004 24.6188 27.2404 17.7254H27.4507C28.1503 17.7259 28.8477 17.6443 29.5287 17.4822C27.4479 25.8823 22.4702 31.2661 15.3122 33.9916C5.43425 30.3548 -0.412268 21.4265 0.0221393 4.75212C5.21843 5.03165 10.3179 3.89115 15.2596 0.0139768V0Z" fill="#4D32A5"/>
<path fill-rule="evenodd" clip-rule="evenodd" d="M11.1506 14.8406H11.5656V13.9153C11.5634 12.8872 11.9539 11.8979 12.6558 11.1535C12.9956 10.7863 13.4065 10.4936 13.863 10.2935C14.3194 10.0934 14.8117 9.99011 15.3092 9.99011C15.8068 9.99011 16.2991 10.0934 16.7555 10.2935C17.212 10.4936 17.6229 10.7863 17.9627 11.1535C18.6714 11.8948 19.0681 12.8847 19.0695 13.9153V14.8406H19.4818C19.6439 14.8406 19.7995 14.9057 19.9142 15.0215C20.0288 15.1374 20.0933 15.2945 20.0933 15.4583V21.9855C20.0925 22.1491 20.0279 22.3058 19.9134 22.4215C19.7988 22.5372 19.6437 22.6026 19.4818 22.6033H11.1506C10.9886 22.6026 10.8335 22.5372 10.719 22.4215C10.6044 22.3058 10.5398 22.1491 10.5391 21.9855V15.4583C10.5391 15.2945 10.6035 15.1374 10.7182 15.0215C10.8328 14.9057 10.9884 14.8406 11.1506 14.8406ZM12.7222 14.8406H17.8991V13.9153C17.9036 13.1875 17.6289 12.4862 17.1326 11.9585C16.8996 11.7059 16.6176 11.5043 16.3041 11.3666C15.9907 11.2288 15.6525 11.1577 15.3106 11.1577C14.9688 11.1577 14.6306 11.2288 14.3171 11.3666C14.0037 11.5043 13.7216 11.7059 13.4886 11.9585C12.9923 12.4862 12.7176 13.1875 12.7222 13.9153V14.8406ZM14.8084 19.0085L14.1499 20.7556H16.4714L15.8599 18.9833C16.1011 18.8573 16.293 18.6525 16.4042 18.4021C16.5154 18.1518 16.5393 17.8708 16.472 17.605C16.4047 17.3392 16.2503 17.1042 16.0338 16.9385C15.8173 16.7728 15.5517 16.6862 15.2802 16.6927C15.0086 16.6992 14.7473 16.7984 14.5389 16.9743C14.3304 17.1502 14.1871 17.3922 14.1324 17.661C14.0776 17.9297 14.1147 18.2093 14.2375 18.454C14.3603 18.6987 14.5615 18.8942 14.8084 19.0085Z" fill="#4D32A5"/>
<path fill-rule="evenodd" clip-rule="evenodd" d="M27.4564 1.93445C28.7506 1.93445 30.0158 2.32218 31.0919 3.04861C32.168 3.77504 33.0068 4.80754 33.502 6.01555C33.9973 7.22356 34.1269 8.55282 33.8744 9.83523C33.6219 11.1176 32.9987 12.2956 32.0835 13.2202C31.1684 14.1448 30.0024 14.7744 28.733 15.0295C27.4636 15.2846 26.1479 15.1537 24.9522 14.6533C23.7565 14.1529 22.7345 13.3056 22.0154 12.2184C21.2964 11.1312 20.9126 9.85302 20.9126 8.54548C20.9126 6.79213 21.602 5.11058 22.8292 3.87078C24.0564 2.63097 25.7209 1.93445 27.4564 1.93445ZM25.9512 8.38615C26.1394 8.54548 26.316 8.71831 26.4797 8.90329C26.9805 8.09197 27.5351 7.31588 28.1398 6.58034C29.8 4.57327 29.0391 4.96183 31.3218 4.96183L30.9897 5.32522C30.2169 6.21071 29.5147 7.15664 28.8896 8.15413C28.0979 9.30975 27.3798 10.5151 26.7397 11.7629L26.5433 12.1487L26.3607 11.7574C26.0384 11.0459 25.6304 10.3775 25.146 9.76706C24.709 9.21015 24.188 8.72622 23.6021 8.33303C23.8981 7.34627 25.3148 7.85223 25.9484 8.39453L25.9512 8.38615Z" fill="#4D32A5"/>
</g>
<defs>
<clipPath id="clip0_36_37">
<rect width="34" height="34" fill="white"/>
</clipPath>
</defs>
</svg>
